<?xml version="1.0" encoding="UTF-8"?>
<svg version="1.1" xmlns="http://www.w3.org/2000/svg" width="1254" height="1254">
<path d="M0 0 C413.82 0 827.64 0 1254 0 C1254 413.82 1254 827.64 1254 1254 C840.18 1254 426.36 1254 0 1254 C0 840.18 0 426.36 0 0 Z " fill="#16212F" transform="translate(0,0)"/>
<path d="M0 0 C203.61 0 407.22 0 617 0 C617 0.33 617 0.66 617 1 C615.28683594 1.04374756 615.28683594 1.04374756 613.5390625 1.08837891 C574.01131438 2.1659159 534.72855024 5.77000555 496 14 C495.14438477 14.17772949 494.28876953 14.35545898 493.40722656 14.53857422 C451.3627218 23.30813896 409.92449926 36.87898577 371 55 C369.99630371 55.46341797 368.99260742 55.92683594 367.95849609 56.40429688 C343.47188739 67.75431293 319.674147 80.33939759 297 95 C295.92621094 95.6909375 294.85242188 96.381875 293.74609375 97.09375 C290.80339299 99.02553687 287.89768635 101.00123095 285 103 C283.89640137 103.75966064 283.89640137 103.75966064 282.77050781 104.53466797 C272.2972716 111.75794481 261.9698544 119.09335158 252 127 C251.13375 127.68449219 250.2675 128.36898437 249.375 129.07421875 C246.90661321 131.03735762 244.45086188 133.01503679 242 135 C241.15179688 135.68449219 240.30359375 136.36898437 239.4296875 137.07421875 C227.60908631 146.67199552 216.13744299 156.61785861 205 167 C204.36239746 167.59248535 203.72479492 168.1849707 203.06787109 168.79541016 C188.4682237 182.26290602 188.4682237 182.26290602 174.9375 196.78125 C173.01416076 198.98378365 171.03939041 201.13275069 169.05029297 203.27587891 C164.2781151 208.42080654 159.72350439 213.676051 155.3203125 219.14453125 C152.29756539 222.86444393 149.19137597 226.51030667 146.06835938 230.14624023 C130.09597791 248.86801542 116.44083936 269.43173414 103 290 C102.13713379 291.31532715 102.13713379 291.31532715 101.25683594 292.65722656 C92.49802396 306.05848007 84.66152032 319.94765053 77 334 C76.53851563 334.845625 76.07703125 335.69125 75.6015625 336.5625 C72.65044541 341.99970966 69.7920046 347.47946991 67 353 C66.54447754 353.90024902 66.08895508 354.80049805 65.61962891 355.72802734 C49.74036692 387.3737801 36.45235424 420.87054694 27 455 C26.82339844 455.6323053 26.64679687 456.2646106 26.46484375 456.91607666 C18.16483193 486.64522583 11.70052718 516.46410542 7.1875 547 C6.99244873 548.29574951 6.79739746 549.59149902 6.59643555 550.92651367 C3.26089981 574.72255224 2.66637249 598.60508637 2.73925781 622.59130859 C2.75067207 626.37350353 2.74384821 630.15541751 2.73238087 633.937603 C2.68579368 652.04617416 3.17670133 669.96472034 5 688 C5.11695221 689.16308685 5.11695221 689.16308685 5.23626709 690.34967041 C5.69105248 694.74326449 6.22785028 699.12196776 6.8125 703.5 C7.06906372 705.44132813 7.06906372 705.44132813 7.33081055 707.421875 C9.03773747 720.05469939 11.33959234 732.53592758 14 745 C14.39276123 746.84078125 14.39276123 746.84078125 14.79345703 748.71875 C17.79433749 762.63750355 21.01603472 776.49049008 24.6875 790.25 C24.96062012 791.27802734 25.23374023 792.30605469 25.51513672 793.36523438 C27.0978315 799.1611257 28.94321155 804.7886102 31.04418945 810.41674805 C31.89845089 812.72554506 32.69898337 815.04086983 33.46875 817.37890625 C43.43730452 847.61283537 55.80458394 876.53552672 70 905 C70.66249756 906.3310376 70.66249756 906.3310376 71.33837891 907.68896484 C81.13055587 927.20627609 92.36496252 946.33827894 104.8125 964.28417969 C106.08439007 966.12193533 107.33993008 967.97018621 108.59375 969.8203125 C118.98589203 985.11394662 129.74443364 1000.02276783 141.55566406 1014.25585938 C143.59569033 1016.71933937 145.60859789 1019.20467035 147.625 1021.6875 C149.0811131 1023.46015943 150.53950469 1025.23094934 152 1027 C152.8146875 1027.99 153.629375 1028.98 154.46875 1030 C161.35284686 1038.29305487 168.66234291 1046.14107645 176.07714844 1053.95947266 C177.99553165 1055.99525819 179.89514193 1058.04692353 181.7890625 1060.10546875 C189.63948996 1068.65376354 189.63948996 1068.65376354 198.2109375 1076.46484375 C200.25004499 1078.21455826 202.11668277 1080.08396104 204 1082 C207.0777997 1085.1133812 210.23854507 1088.05009058 213.55859375 1090.90234375 C215.49968148 1092.57012632 217.42650956 1094.25086122 219.34765625 1095.94140625 C227.08023486 1102.72730505 234.95617661 1109.24731157 243.10302734 1115.52832031 C245.13806816 1117.10711388 247.15762088 1118.70438006 249.17578125 1120.3046875 C309.08324585 1167.65294916 377.40675143 1202.54131445 450.10064697 1225.40161133 C451.84118529 1225.94996563 453.57963866 1226.50492644 455.31787109 1227.06054688 C468.36388049 1231.20509688 481.58768471 1234.38940333 494.9375 1237.375 C495.72084717 1237.55075562 496.50419434 1237.72651123 497.3112793 1237.90759277 C508.09869289 1240.32637426 508.09869289 1240.32637426 519.04882812 1241.77978516 C521.16868162 1242.01903789 523.17738357 1242.45008621 525.25390625 1242.9375 C531.0945439 1244.30373103 537.00494711 1245.13736479 542.9375 1246 C544.72776611 1246.2616394 544.72776611 1246.2616394 546.55419922 1246.52856445 C571.33356465 1250.10164404 595.74338336 1251.16876664 620.75439453 1251.13037109 C624.48667675 1251.12469508 628.21888737 1251.12805191 631.95116711 1251.13380241 C652.76288919 1251.16118149 673.48215373 1250.96492479 694.1875 1248.625 C695.37021484 1248.49488525 696.55292969 1248.36477051 697.77148438 1248.23071289 C706.51832393 1247.23864968 715.17999816 1245.97714783 723.83740234 1244.38525391 C726.37942391 1243.93240789 728.92753154 1243.52483232 731.4765625 1243.11328125 C739.14569158 1241.83930159 746.76062679 1240.31262279 754.375 1238.75 C755.12056152 1238.59726624 755.86612305 1238.44453247 756.63427734 1238.28717041 C768.24295529 1235.89661921 779.69902111 1233.17636587 791.07543945 1229.83496094 C793.36097538 1229.18244129 795.64802081 1228.55980598 797.94604492 1227.95410156 C809.32663841 1224.92792301 820.29626631 1221.1469759 831.3125 1217 C832.95092458 1216.3899604 834.58959621 1215.78058391 836.22851562 1215.171875 C840.13094116 1213.7199837 844.02855977 1212.25578966 847.92346191 1210.78384399 C849.80216204 1210.07467915 851.68271348 1209.37042352 853.56347656 1208.66674805 C861.54171818 1205.65163051 869.34617149 1202.30811563 877.125 1198.8125 C877.75484802 1198.52998383 878.38469604 1198.24746765 879.03363037 1197.95639038 C889.16454852 1193.4019998 899.05572997 1188.51085948 908.80371094 1183.18408203 C911.0445085 1181.9760042 913.30269578 1180.8092224 915.5703125 1179.65234375 C946.2302358 1163.96714235 975.22225571 1144.48163616 1002.34375 1123.29296875 C1004.048816 1121.96189128 1005.75863179 1120.63707817 1007.46875 1119.3125 C1014.91237684 1113.5275971 1022.17747897 1107.56658083 1029.33056641 1101.42675781 C1031.07089176 1099.93941336 1032.82155931 1098.46497076 1034.57421875 1096.9921875 C1040.91990577 1091.63935143 1046.97583379 1086.16943811 1052.78125 1080.22265625 C1054.74770617 1078.25273801 1056.75600379 1076.42701522 1058.875 1074.625 C1066.49590031 1068.08617478 1073.59790505 1060.82545065 1080.1015625 1053.1796875 C1082.11958483 1050.8626989 1084.20275262 1048.61855664 1086.30029297 1046.3737793 C1091.24292642 1041.08094685 1095.99980196 1035.70933354 1100.53515625 1030.05859375 C1102.41974341 1027.72003314 1104.32220516 1025.40354639 1106.24609375 1023.09765625 C1122.43056104 1003.67944161 1137.25184463 983.21596337 1151 962 C1151.4242627 961.34837891 1151.84852539 960.69675781 1152.28564453 960.02539062 C1176.55656858 922.62844061 1196.25690642 882.67138617 1212 841 C1212.25918213 840.32211426 1212.51836426 839.64422852 1212.78540039 838.94580078 C1223.95962529 809.54820877 1232.68481596 779.74864188 1238.46630859 748.80761719 C1239.12564965 745.33898855 1239.84247502 741.8838369 1240.56176758 738.42724609 C1245.30262358 715.44646094 1248.24330068 692.38722674 1250 669 C1250.0494577 668.34384705 1250.09891541 667.68769409 1250.14987183 667.01165771 C1251.11374742 653.73226207 1251.18619624 640.45414166 1251.18530273 627.14453125 C1251.18747966 623.53373239 1251.2056805 619.92324483 1251.22460938 616.3125 C1251.27594771 595.41984389 1250.1300798 574.67916837 1247.0625 554 C1246.88775146 552.78272217 1246.71300293 551.56544434 1246.53295898 550.3112793 C1246.03415757 546.87222289 1245.52147349 543.43568354 1245 540 C1244.86980469 539.13971191 1244.73960938 538.27942383 1244.60546875 537.39306641 C1243.81401471 532.24752801 1242.93424513 527.12142719 1242 522 C1241.82355957 521.03030273 1241.64711914 520.06060547 1241.46533203 519.06152344 C1236.69467985 493.07517327 1230.76121787 467.48831123 1222.17993164 442.47387695 C1220.73275353 438.25461043 1219.38933716 434.01587877 1218.09765625 429.74609375 C1200.17824124 371.21215556 1169.85580953 316.00830597 1135 266 C1134.52965332 265.32356445 1134.05930664 264.64712891 1133.57470703 263.95019531 C1113.84007799 235.65965932 1091.81054347 208.49399754 1067.23046875 184.265625 C1065.21852982 182.22197425 1063.34934908 180.1274052 1061.5 177.9375 C1058.11203271 173.97421751 1054.31253986 170.59214033 1050.40234375 167.15234375 C1048.36804531 165.32974466 1046.45565472 163.46579375 1044.5625 161.5 C1040.91221066 157.78116063 1036.88396338 154.58772805 1032.828125 151.32421875 C1030.1220982 149.10034313 1027.52313567 146.7995351 1024.9375 144.4375 C1020.12090488 140.06424203 1015.12397635 136.00601787 1010 132 C1008.64305545 130.92469835 1007.28630038 129.84915756 1005.9296875 128.7734375 C996.91220471 121.65457945 987.76174059 114.85965112 978.20898438 108.47753906 C975.75315933 106.83489393 973.30638017 105.17919007 970.859375 103.5234375 C960.74427795 96.70181971 950.55896047 90.11107467 940 84 C939.23816406 83.55479004 938.47632813 83.10958008 937.69140625 82.65087891 C907.2343593 64.86622491 875.92407254 50.60295312 843 38 C842.07896484 37.64389648 841.15792969 37.28779297 840.20898438 36.92089844 C829.78360378 32.89741505 819.34497041 29.5399731 808.54345703 26.6875 C805.72674878 25.92613981 802.92411038 25.12279292 800.12109375 24.3125 C786.18117643 20.29428637 772.22689046 16.83820573 758 14 C757.18756836 13.83435547 756.37513672 13.66871094 755.53808594 13.49804688 C749.0483279 12.18789548 742.53430444 11.06409704 736 10 C735.30946533 9.88700562 734.61893066 9.77401123 733.9074707 9.65759277 C705.67659054 5.06090439 677.5568388 2.48519711 649 1 C649 0.67 649 0.34 649 0 C848.65 0 1048.3 0 1254 0 C1254 413.82 1254 827.64 1254 1254 C840.18 1254 426.36 1254 0 1254 C0 840.18 0 426.36 0 0 Z " fill="#FCFCFC" transform="translate(0,0)"/>
<path d="M0 0 C0.7644352 0.00468233 1.52887039 0.00936466 2.3164703 0.01418889 C3.12878855 0.011282 3.94110681 0.00837512 4.77804077 0.00538015 C7.52943311 -0.00198129 10.28060671 0.00505193 13.03199783 0.01190388 C15.01276524 0.00960186 16.99353179 0.00642708 18.97429654 0.00244939 C24.44044354 -0.00594312 29.9065212 -0.00175319 35.37266853 0.00442183 C41.25898939 0.00892735 47.14529791 0.00197195 53.03161636 -0.00353801 C63.90544404 -0.0119388 74.77924775 -0.01118036 85.65307672 -0.00571508 C95.70028776 -0.00068992 105.74749064 0.00063224 115.79470268 -0.00176036 C116.79322185 -0.00198952 116.79322185 -0.00198952 117.81191313 -0.0022233 C120.51397349 -0.00284596 123.21603384 -0.00348275 125.91809419 -0.00414283 C151.28675471 -0.01026623 176.65540107 -0.00470599 202.02405941 0.00605096 C224.56751006 0.0155373 247.11093812 0.01469812 269.65438858 0.00512898 C294.96821002 -0.00558013 320.28201893 -0.00982655 345.59584233 -0.00364649 C348.29461609 -0.00300504 350.99338985 -0.00237936 353.69216362 -0.00176036 C354.35669404 -0.00160221 355.02122446 -0.00144405 355.70589216 -0.00128111 C365.74384959 0.00099444 375.78179758 -0.00168033 385.8197538 -0.00671947 C397.23656572 -0.01232457 408.65335013 -0.01081988 420.07015889 -0.00015798 C425.89774719 0.00510451 431.7252896 0.0071457 437.55287758 0.00054371 C442.88549825 -0.00540618 448.21803041 -0.00215641 453.55064303 0.00849882 C455.48205348 0.01073698 457.41347138 0.00958727 459.34487706 0.00474724 C461.96678125 -0.00132018 464.5883809 0.00488965 467.21026912 0.01418889 C468.33936317 0.00716539 468.33936317 0.00716539 469.4912672 0 C480.38953667 0.07743527 480.38953667 0.07743527 483.57797256 3.26587117 C483.95931747 10.55628847 482.8721891 17.20437817 481.39047256 24.32837117 C481.16271133 25.43599812 480.9349501 26.54362507 480.70028701 27.68481648 C478.8533524 36.42226243 476.6073225 44.85664543 473.57797256 53.26587117 C473.28519424 54.09071003 472.99241592 54.9155489 472.69076553 55.76538289 C456.08806166 102.16348312 424.62587121 119.45404273 381.94491592 140.5983907 C375.56796373 143.75935312 369.23569786 146.98419845 362.95297256 150.32837117 C355.88376513 154.08989055 348.74909215 157.702617 341.57797256 161.26587117 C332.67309322 165.69327534 323.83123327 170.21852095 315.05453506 174.89477742 C312.04448813 176.49834017 309.0190867 178.06499649 305.97641006 179.60571492 C297.82057542 183.76172283 290.30735735 187.94355691 283.57797256 194.26587117 C282.63244522 195.14952351 282.63244522 195.14952351 281.66781631 196.05102742 C269.0606402 209.1015328 266.06217554 226.45759581 266.15585342 243.87573445 C266.83058516 269.71021727 278.31957094 294.82111629 293.57797256 315.26587117 C293.96227432 315.79825398 294.34657608 316.33063679 294.74252334 316.87915242 C306.54999411 333.21371371 321.32303652 347.41131657 337.57797256 359.26587117 C338.87173536 360.22964991 340.16467767 361.19453086 341.45687881 362.16040242 C347.54266146 366.68750254 353.67120434 371.11654194 360.03891006 375.24243367 C361.57797256 376.26587117 361.57797256 376.26587117 362.57797256 377.26587117 C362.84746696 378.84925859 363.05728249 380.44286378 363.2422792 382.0383321 C363.36232818 383.05739644 363.48237716 384.07646077 363.60606399 385.12640584 C363.73214538 386.23977314 363.85822677 387.35314045 363.98812881 388.50024617 C364.11989013 389.64438984 364.25165146 390.78853352 364.38740554 391.96734822 C364.66617123 394.40172054 364.94259229 396.83636229 365.21688858 399.27124226 C365.63407204 402.95928835 366.0635559 406.64575733 366.49398819 410.33227742 C366.76362817 412.70068062 367.03253053 415.06916795 367.30062881 417.43774617 C367.42873443 418.52682271 367.55684005 419.61589924 367.68882766 420.7379781 C368.29692407 426.23591357 368.64171278 431.62692474 368.61140457 437.16119587 C368.60657782 438.31068337 368.60175108 439.46017087 368.59677806 440.64449131 C368.58746934 441.94207434 368.58746934 441.94207434 368.57797256 443.26587117 C347.785715 443.38260843 326.99351138 443.47081223 306.20099273 443.52493203 C296.54691893 443.55072734 286.89304859 443.58590317 277.23910537 443.64306843 C268.82593535 443.69286283 260.41291265 443.72515252 251.99959937 443.73631364 C247.54362757 443.74283916 243.0880773 443.7582032 238.63224044 443.79452145 C234.43954778 443.82841854 230.24745092 443.83893702 226.05463424 443.83140957 C224.5146767 443.83278696 222.97469957 443.84275738 221.43486038 443.86189854 C219.33357516 443.88674111 217.23454565 443.88081208 215.13320938 443.86714375 C213.95700153 443.87175272 212.78079368 443.87636168 211.56894317 443.88111031 C208.57797256 443.26587117 208.57797256 443.26587117 206.23418823 440.89162171 C204.56792367 438.24993973 203.60860584 435.93333589 202.70297256 432.95337117 C198.58178521 421.11288289 188.79533646 411.70879015 177.57797256 406.26587117 C175.05218796 405.27169695 172.49415279 404.46726609 169.89047256 403.70337117 C168.83738907 403.38759114 168.83738907 403.38759114 167.76303115 403.06543171 C165.70434624 402.45467757 163.64176967 401.85907696 161.57797256 401.26587117 C160.56348037 400.96423054 159.54898819 400.66258992 158.50375381 400.35180867 C144.08870035 396.37108261 128.98646882 395.91156936 114.11898819 395.95019734 C111.57884197 395.95337008 109.03985252 395.92971823 106.49984756 395.90454304 C81.46426248 395.80778439 52.2296934 400.7538206 33.62094131 418.98852742 C28.20660008 425.02401679 24.79618096 431.53871726 21.65609756 438.98071492 C20.57797256 441.26587117 20.57797256 441.26587117 18.57797256 443.26587117 C15.83589092 443.51476014 15.83589092 443.51476014 12.2699739 443.51310933 C11.61560224 443.51552374 10.96123058 443.51793816 10.28702947 443.52042574 C8.08434983 443.52608204 5.88195774 443.51738533 3.67929092 443.50879109 C2.104283 443.50986349 0.52927546 443.51180153 -1.04573044 443.51454365 C-5.33070523 443.51940155 -9.61557629 443.51172488 -13.90053853 443.50159061 C-18.37640459 443.49282681 -22.85226723 443.49456722 -27.32814011 443.49495137 C-34.84456104 443.49401405 -42.36094166 443.48532051 -49.8773497 443.47168171 C-58.57971225 443.45594977 -67.28203064 443.45068377 -75.98440638 443.45141727 C-84.34157923 443.45202665 -92.69873763 443.44692978 -101.05590615 443.43862545 C-104.61929866 443.43508593 -108.18268606 443.43326125 -111.74608025 443.43273175 C-115.93782859 443.43173054 -120.12953954 443.42565219 -124.32127556 443.41556561 C-125.86407223 443.41263364 -127.4068732 443.41141664 -128.94967255 443.41199315 C-131.04682617 443.41248044 -133.14387354 443.40686197 -135.24101242 443.39958394 C-136.41738801 443.39790809 -137.5937636 443.39623225 -138.80578694 443.39450562 C-141.42202744 443.26587117 -141.42202744 443.26587117 -142.42202744 442.26587117 C-142.841115 435.78014665 -142.28805879 429.27702874 -141.60952744 422.82837117 C-141.52187119 421.97146687 -141.43421494 421.11456257 -141.34390244 420.23169148 C-140.62410776 413.50456934 -139.65325031 406.83416588 -138.52383408 400.16430867 C-137.87952831 396.33308383 -137.31954157 392.52986304 -136.96108994 388.66040242 C-136.88954697 387.92982625 -136.818004 387.19925007 -136.74429306 386.44653523 C-136.5594802 384.46208423 -136.39998987 382.47532083 -136.24233994 380.48852742 C-134.95740441 375.44056642 -131.80531362 374.13732243 -127.58218369 371.47680867 C-126.55995713 370.87094929 -125.53773056 370.26508992 -124.48452744 369.64087117 C-113.11795037 362.77022509 -102.51776558 354.89313831 -92.42202744 346.26587117 C-91.17679306 345.20626179 -91.17679306 345.20626179 -89.90640244 344.12524617 C-66.72846268 323.86277053 -49.11592938 297.4834728 -39.42202744 268.26587117 C-39.14616806 267.50661335 -38.87030869 266.74735554 -38.58608994 265.96508992 C-30.47243715 242.06596412 -31.05264087 208.46114214 -40.92202744 185.16821492 C-46.66137073 174.0631835 -54.86443546 167.89803649 -66.58633408 164.11181843 C-72.16256247 162.44831164 -77.79746695 161.00114071 -83.42874131 159.53766072 C-87.2520895 158.54182592 -91.07119532 157.52994259 -94.89077744 156.51977742 C-96.38295244 156.12536163 -97.87513955 155.73099168 -99.36733994 155.33667195 C-100.41196396 155.0605608 -100.41196396 155.0605608 -101.4776915 154.77887166 C-103.17479133 154.33110282 -104.87257126 153.88591327 -106.57046494 153.44116414 C-132.95890587 146.4855153 -157.98530939 136.31770422 -182.42202744 124.26587117 C-183.33049424 123.81856648 -184.23896103 123.37126179 -185.17495713 122.91040242 C-208.5821171 111.2650492 -229.8353139 96.54103283 -249.42202744 79.26587117 C-249.95344345 78.79761921 -250.48485947 78.32936726 -251.032379 77.84692585 C-257.24581318 72.33930776 -263.21643808 66.75849366 -268.42202744 60.26587117 C-269.20191025 59.30036335 -269.98179306 58.33485554 -270.78530869 57.34008992 C-281.5050252 43.86082208 -292.25192429 28.62669635 -294.42202744 11.26587117 C-199.71202744 11.26587117 -105.00202744 11.26587117 -7.42202744 11.26587117 C-7.42202744 8.29587117 -7.42202744 5.32587117 -7.42202744 2.26587117 C-4.91766735 -0.23848892 -3.41685935 0.0247168 0 0 Z " fill="#FCFBFB" transform="translate(529.422027438879,519.7341288328171)"/>
<path d="M0 0 C3.95674985 2.13521256 6.14615916 6.5605313 8.61499023 10.18896484 C9.23374023 11.04876953 9.85249023 11.90857422 10.48999023 12.79443359 C11.06491211 13.63103516 11.63983398 14.46763672 12.23217773 15.32958984 C12.76182129 16.09303711 13.29146484 16.85648438 13.8371582 17.64306641 C14.73999023 19.93896484 14.73999023 19.93896484 14.0012207 22.57421875 C12.54769323 25.29951242 10.88400452 27.62168326 8.98999023 30.06396484 C7.78922852 31.63404297 7.78922852 31.63404297 6.56420898 33.23583984 C6.1173877 33.81914062 5.67056641 34.40244141 5.21020508 35.00341797 C2.36852234 38.74451076 -0.41202445 42.5309518 -3.19750977 46.31396484 C-3.80296631 47.13582275 -4.40842285 47.95768066 -5.03222656 48.80444336 C-8.89178104 54.05320885 -12.72050149 59.32195125 -16.48217773 64.64135742 C-18.85933321 67.99927333 -21.2772801 71.3222966 -23.72875977 74.62646484 C-24.32422607 75.43462646 -24.91969238 76.24278809 -25.53320312 77.07543945 C-26.70154347 78.65952978 -27.87656256 80.23872194 -29.05908203 81.81225586 C-29.59073975 82.53598389 -30.12239746 83.25971191 -30.67016602 84.00537109 C-31.38378296 84.96358765 -31.38378296 84.96358765 -32.11181641 85.94116211 C-33.44151386 88.25477348 -33.86628994 90.31426073 -34.26000977 92.93896484 C-33.33188477 93.68146484 -32.40375977 94.42396484 -31.44750977 95.18896484 C-26.57482458 99.30933521 -26.57482458 99.30933521 -25.26000977 101.93896484 C-26.51050224 106.09059987 -28.73555011 109.18501035 -31.32250977 112.62646484 C-34.0192102 116.14203501 -34.0192102 116.14203501 -36.26000977 119.93896484 C-35.41007446 120.33051758 -35.41007446 120.33051758 -34.54296875 120.72998047 C-32.05769902 122.04610235 -29.96273213 123.5695944 -27.73266602 125.28271484 C-26.86448242 125.94706543 -25.99629883 126.61141602 -25.10180664 127.29589844 C-23.72605469 128.35671631 -23.72605469 128.35671631 -22.32250977 129.43896484 C-20.90615234 130.52491943 -20.90615234 130.52491943 -19.46118164 131.6328125 C-16.72503936 133.73173889 -13.99218655 135.83488068 -11.26000977 137.93896484 C-9.98807392 138.91578726 -8.71596896 139.89238957 -7.44360352 140.86865234 C-3.84287424 143.63321108 -0.24749717 146.40468983 3.34594727 149.17871094 C9.11820154 153.63403608 14.90002592 158.07242122 20.73999023 162.43896484 C26.56990947 166.79799775 32.34129006 171.22916067 38.10327148 175.67724609 C39.71975819 176.9233683 41.33876699 178.16612951 42.95874023 179.40771484 C48.52039732 183.67232792 54.05376809 187.96846308 59.55249023 192.31396484 C65.22370354 196.79240724 70.98431387 201.14008853 76.77832031 205.45800781 C81.73272326 209.1593191 86.60374793 212.95431626 91.45092773 216.79443359 C95.82687806 220.24965229 100.26942764 223.60732747 104.73999023 226.93896484 C110.44749564 231.19371302 116.0827066 235.5263108 121.66845703 239.93945312 C129.10948041 245.81833689 136.63379357 251.58818077 144.19311523 257.31396484 C144.95712646 257.8942041 145.7211377 258.47444336 146.50830078 259.07226562 C148.00518257 260.20866603 149.50396006 261.34257496 151.00488281 262.47363281 C152.03585083 263.25697998 152.03585083 263.25697998 153.08764648 264.05615234 C154.00042358 264.74620361 154.00042358 264.74620361 154.93164062 265.45019531 C157.0051086 267.15723024 158.85184689 269.03083541 160.73999023 270.93896484 C147.92652124 271.17144148 135.11356003 271.34873895 122.29840565 271.45708656 C116.34661277 271.50910921 110.39627058 271.57958217 104.4453125 271.69335938 C98.69393004 271.80262318 92.94393592 271.86193306 87.19159508 271.88773727 C85.00553231 271.90610724 82.81953911 271.9419805 80.63407326 271.99626541 C68.29283504 272.29040648 59.6402973 272.20471034 50.33769226 263.51937866 C49.48045059 262.6678421 48.62320892 261.81630554 47.73999023 260.93896484 C45.824332 259.45205668 43.88932201 257.98939757 41.92749023 256.56396484 C40.94651367 255.83048828 39.96553711 255.09701172 38.95483398 254.34130859 C38.44033691 253.95700684 37.92583984 253.57270508 37.39575195 253.17675781 C34.25747948 250.83068859 31.12419257 248.47796694 27.98999023 246.12646484 C26.62021818 245.09909494 25.25042635 244.07175141 23.88061523 243.04443359 C15.88061523 237.04443359 7.88061523 231.04443359 -0.11938477 225.04443359 C-0.75900146 224.56474121 -1.39861816 224.08504883 -2.05761719 223.59082031 C-3.36254553 222.61208326 -4.6673954 221.63324158 -5.97216797 220.65429688 C-9.73160824 217.83391776 -13.49291667 215.01606225 -17.25610352 212.20068359 C-31.92140343 201.22350525 -31.92140343 201.22350525 -38.82250977 195.87646484 C-44.28620825 191.65224946 -49.82533431 187.53592423 -55.38500977 183.43896484 C-56.21589111 182.82657959 -57.04677246 182.21419434 -57.90283203 181.58325195 C-60.99216996 179.31288995 -64.06942333 177.06602247 -67.26000977 174.93896484 C-67.26000977 174.27896484 -67.26000977 173.61896484 -67.26000977 172.93896484 C-70.82813267 176.16257933 -72.87360699 178.93913447 -75.03564453 183.3046875 C-76.72746793 186.57642215 -78.37844023 189.5789585 -81.26000977 191.93896484 C-84.83875517 192.94399809 -88.39106103 192.63132165 -92.0690918 192.45825195 C-96.39998569 192.39685169 -97.76033939 192.50234012 -101.17016602 195.48193359 C-105.05687388 200.72707682 -105.05687388 200.72707682 -105.98461914 206.89306641 C-105.1820413 209.15910491 -104.15943282 210.73089408 -102.72094727 212.65380859 C-102.22336914 213.34023438 -101.72579102 214.02666016 -101.21313477 214.73388672 C-100.1601566 216.16348703 -99.10022401 217.58799077 -98.03344727 219.00732422 C-97.53844727 219.69503906 -97.04344727 220.38275391 -96.53344727 221.09130859 C-96.07373535 221.70997803 -95.61402344 222.32864746 -95.14038086 222.96606445 C-93.92412382 225.69168097 -94.35255142 227.13026925 -95.26000977 229.93896484 C-96.45239258 231.96508789 -96.45239258 231.96508789 -97.96313477 233.95068359 C-98.80654419 235.07494751 -98.80654419 235.07494751 -99.66699219 236.22192383 C-100.27518799 237.01542236 -100.88338379 237.8089209 -101.51000977 238.62646484 C-102.78303792 240.31850188 -104.05515014 242.01122836 -105.32641602 243.70458984 C-105.97755371 244.56761719 -106.62869141 245.43064453 -107.29956055 246.31982422 C-110.40321411 250.46627446 -113.42614519 254.66986903 -116.44750977 258.87646484 C-122.7042109 267.5751471 -122.7042109 267.5751471 -125.26000977 270.93896484 C-130.4925495 270.49450201 -133.80004445 267.70620963 -137.88500977 264.68896484 C-139.41136599 263.5860344 -140.93874706 262.48452117 -142.46704102 261.38427734 C-143.65160889 260.52817871 -143.65160889 260.52817871 -144.86010742 259.65478516 C-148.72107099 256.89437295 -152.6463237 254.23039242 -156.57250977 251.56396484 C-163.10767538 247.11298718 -169.60374096 242.61086231 -176.07250977 238.06396484 C-183.32747184 232.9678593 -190.62119057 227.93196294 -197.94750977 222.93896484 C-198.84381104 222.32811035 -199.7401123 221.71725586 -200.66357422 221.08789062 C-206.17459715 217.33959028 -211.70746742 213.62546811 -217.26000977 209.93896484 C-216.64186403 205.95344198 -214.63514652 203.3499921 -212.31860352 200.10693359 C-211.49600716 198.94393823 -210.67426105 197.78034112 -209.85327148 196.61621094 C-209.21213409 195.71101715 -209.21213409 195.71101715 -208.55804443 194.78753662 C-206.43014497 191.75712843 -204.36343232 188.68602444 -202.29516602 185.61474609 C-201.46777666 184.39007956 -200.6403026 183.16547024 -199.81274414 181.94091797 C-198.5522515 180.07413756 -197.29248173 178.20688086 -196.03417969 176.33862305 C-194.78981016 174.49182629 -193.54271108 172.64689864 -192.29516602 170.80224609 C-191.2028064 169.18249878 -191.2028064 169.18249878 -190.08837891 167.5300293 C-188.26000977 164.93896484 -188.26000977 164.93896484 -186.26000977 162.93896484 C-180.67884914 163.30295358 -175.39950983 164.91276329 -170.02954102 166.41552734 C-166.50296197 167.12078607 -166.50296197 167.12078607 -163.26000977 165.93896484 C-161.62810083 163.8646533 -160.29128651 161.93432489 -158.94750977 159.68896484 C-158.38966797 158.82851563 -158.38966797 158.82851563 -157.82055664 157.95068359 C-156.28803853 155.44500221 -155.25522715 153.52340058 -155.27954102 150.55224609 C-156.71932895 146.71472366 -158.45443423 143.05390452 -160.26000977 139.37646484 C-160.99255019 137.87680605 -161.72183548 136.37555187 -162.44750977 134.87255859 C-162.77106445 134.21312256 -163.09461914 133.55368652 -163.42797852 132.87426758 C-164.30060051 130.84455086 -164.91897144 129.12605537 -165.26000977 126.93896484 C-164.53642273 125.19218445 -164.53642273 125.19218445 -163.32910156 123.41821289 C-162.8808049 122.74618332 -162.43250824 122.07415375 -161.97062683 121.38175964 C-161.47186539 120.66200455 -160.97310394 119.94224945 -160.45922852 119.20068359 C-159.69362358 118.06394951 -159.69362358 118.06394951 -158.91255188 116.9042511 C-157.26927273 114.47012914 -155.60887214 112.04827097 -153.94750977 109.62646484 C-152.87016948 108.03806399 -151.79398501 106.44887854 -150.71899414 104.85888672 C-148.595503 101.72106852 -146.4658625 98.5875707 -144.33129883 95.45727539 C-139.92335953 88.98504736 -135.59213354 82.46205934 -131.26000977 75.93896484 C-130.29944806 74.49730813 -129.33859354 73.05584639 -128.37719727 71.61474609 C-127.9943457 71.04046875 -127.61149414 70.46619141 -127.21704102 69.87451172 C-126.48787435 68.78076172 -125.75870768 67.68701172 -125.02954102 66.59326172 C-124.64926758 66.02285156 -124.26899414 65.45244141 -123.87719727 64.86474609 C-123.46026611 64.26750732 -123.04333496 63.67026855 -122.61376953 63.05493164 C-121.16486333 60.8830201 -121.16486333 60.8830201 -119.91992188 58.16088867 C-113.82055691 46.79096067 -103.50303713 43.66436779 -92.07250977 39.00146484 C-90.02082181 38.13306572 -87.97069904 37.26095984 -85.92211914 36.38525391 C-81.87410553 34.65881552 -77.81972845 32.94912251 -73.75854492 31.25390625 C-66.86280994 28.36592366 -60.06177897 25.29080529 -53.26000977 22.18896484 C-49.26622973 20.39561701 -45.26803195 18.61228533 -41.26812744 16.8326416 C-39.83408217 16.19444547 -38.40031571 15.5556227 -36.96673584 14.91638184 C-31.89274258 12.65495193 -26.81276168 10.40776983 -21.72558594 8.17614746 C-20.05226822 7.44000078 -18.38068326 6.69990162 -16.7109375 5.95568848 C-14.38689648 4.92089393 -12.05688722 3.90090509 -9.72485352 2.88427734 C-9.0283519 2.57046112 -8.33185028 2.2566449 -7.61424255 1.93331909 C-5.02183407 0.81730016 -2.84967076 -0.07695989 0 0 Z " fill="#FC730B" transform="translate(782.260009765625,220.06103515625)"/>
<path d="M0 0 C0.70493428 -0.00170885 1.40986856 -0.0034177 2.13616449 -0.00517833 C4.50390895 -0.00847885 6.87137151 0.00253955 9.23908997 0.01345825 C10.93409214 0.01402225 12.62909479 0.01370604 14.32409668 0.01257324 C18.93125272 0.01199826 23.5383051 0.02377603 28.145437 0.03772116 C32.95808754 0.05020436 37.77074032 0.05139711 42.58340454 0.05377197 C51.69939759 0.05999384 60.8153428 0.07641421 69.93131477 0.09647095 C80.30844743 0.11880798 90.68558235 0.12981785 101.06273305 0.13986182 C122.41166586 0.16077982 143.76055557 0.19596952 165.10945129 0.24050903 C162.30663697 3.83089714 159.56817649 6.66950086 155.98445129 9.49050903 C152.25640432 12.4769021 148.63577605 15.51837203 145.10945129 18.74050903 C140.82108681 22.64889186 136.37555456 26.31355789 131.86335754 29.95925903 C128.16862339 33.01986151 124.63295185 36.23965092 121.10554504 39.49050903 C117.21068389 42.90518182 113.4790764 42.41206368 108.52888489 42.4458313 C107.64101791 42.4557309 106.75315094 42.46563049 105.83837891 42.47583008 C102.8949096 42.50749291 99.95142414 42.5322214 97.00788879 42.55691528 C94.97050042 42.57748068 92.93311635 42.59847704 90.89573669 42.61988831 C85.52651959 42.67515176 80.15726372 42.72454218 74.78797913 42.7727356 C69.31176797 42.82291944 63.8356133 42.87862175 58.35945129 42.93386841 C47.60949952 43.04150225 36.85949876 43.1429356 26.10945129 43.24050903 C25.80874725 44.16410217 25.50804321 45.08769531 25.19822693 46.03927612 C24.03686745 49.45392104 22.61280317 52.62135874 21.07038879 55.88113403 C20.48444568 57.12852723 19.89850834 58.37592314 19.31257629 59.62332153 C18.39399749 61.56814053 17.47411682 63.51233829 16.55378723 65.45632935 C15.66035156 67.34647161 14.77146519 69.23870374 13.88288879 71.13113403 C13.35098938 72.2555188 12.81908997 73.37990356 12.27107239 74.5383606 C10.97780433 77.0565357 10.97780433 77.0565357 11.10945129 79.24050903 C40.31445129 79.73550903 40.31445129 79.73550903 70.10945129 80.24050903 C70.10945129 80.90050903 70.10945129 81.56050903 70.10945129 82.24050903 C68.59793583 83.59148277 67.02131817 84.86978248 65.42195129 86.11550903 C60.36945189 90.1522998 55.59293657 94.3896073 50.87825012 98.8142395 C49.84189318 99.7852972 48.79191304 100.74198253 47.73005676 101.68508911 C46.04818373 103.2181533 46.04818373 103.2181533 44.66462708 105.14553833 C41.44035472 108.90464936 38.59004305 110.38066257 33.69465637 110.79226685 C28.24868414 111.01853259 22.80706447 110.9239115 17.35945129 110.80300903 C14.52930299 110.74596318 11.70135149 110.69967351 8.87062073 110.69068909 C7.11626662 110.68495219 5.36173264 110.65178289 3.60853577 110.58781433 C1.30213356 110.57903168 -0.66105956 110.64885173 -2.89054871 111.24050903 C-5.41990715 113.7700742 -5.41990715 113.7700742 -6.89054871 117.24050903 C-7.44766541 118.36545776 -8.0047821 119.49040649 -8.57878113 120.64944458 C-9.13989915 121.88962215 -9.69540956 123.13234836 -10.24601746 124.37722778 C-10.54905289 125.05002777 -10.85208832 125.72282776 -11.16430664 126.41601562 C-11.80818393 127.84680602 -12.44970956 129.27865673 -13.08903503 130.71148682 C-14.75591931 134.44721478 -16.43937441 138.17546999 -18.12101746 141.90457153 C-18.61431046 143.00029228 -18.61431046 143.00029228 -19.11756897 144.1181488 C-21.93724192 150.37148366 -24.84228395 156.58120501 -27.83659363 162.75296021 C-31.40659341 170.16598735 -34.58285897 177.68007535 -37.89054871 185.24050903 C-54.06054871 185.24050903 -70.23054871 185.24050903 -86.89054871 185.24050903 C-86.10142835 180.5057869 -85.36148855 177.58817548 -83.47648621 173.35769653 C-82.97077087 172.20978638 -82.46505554 171.06187622 -81.9440155 169.87918091 C-81.6716507 169.26872925 -81.39928589 168.65827759 -81.1186676 168.02932739 C-79.62432779 164.67704557 -78.15484288 161.31387798 -76.68351746 157.95144653 C-76.37265701 157.24216003 -76.06179657 156.53287354 -75.74151611 155.80209351 C-72.2538835 147.82310363 -68.91237991 139.78447759 -65.57804871 131.74050903 C-64.30763569 128.67913655 -63.03668507 125.61798748 -61.76554871 122.55691528 C-61.44697403 121.78953537 -61.12839935 121.02215546 -60.8001709 120.23152161 C-57.25597495 111.70110953 -53.66784294 103.18930786 -50.07804871 94.67800903 C-44.59755221 81.67969699 -39.13303986 68.67480721 -33.68641663 55.66226196 C-32.5286211 52.89673395 -31.36992452 50.1315848 -30.21110535 47.3664856 C-27.00835645 39.72051861 -23.81173478 32.07267194 -20.67179871 24.40066528 C-20.21208679 23.2815979 -19.75237488 22.16253052 -19.2787323 21.009552 C-18.47386152 19.04606554 -17.67414526 17.08045257 -16.88127136 15.11209106 C-13.23639385 6.23057496 -10.59266487 -0.01542996 0 0 Z " fill="#FC730D" transform="translate(678.8905487060547,609.7594909667969)"/>
<path d="M0 0 C3.26851019 1.56439051 6.32554414 3.37372146 9.41015625 5.2734375 C10.47290771 5.92731445 11.53565918 6.58119141 12.63061523 7.25488281 C13.77465594 7.96146046 14.91861571 8.66816916 16.0625 9.375 C17.24226291 10.10254874 18.42203185 10.83008771 19.60180664 11.55761719 C28.68337347 17.16350535 37.72043399 22.83768306 46.72900391 28.56005859 C49.88550273 30.56145937 53.04907653 32.55154941 56.21264648 34.54174805 C58.59843207 36.04575153 60.97911866 37.5575778 63.359375 39.0703125 C66.39183575 40.99510035 69.44323823 42.88188008 72.515625 44.7421875 C81.79260498 50.43392086 89.2401476 56.70172874 96.68066406 64.62695312 C98.89480917 66.93123738 101.31263099 68.96960363 103.74609375 71.03515625 C107.0656517 73.92898233 110.27755035 76.9363603 113.5 79.9375 C114.13671631 80.53046875 114.77343262 81.1234375 115.42944336 81.734375 C116.95379555 83.1553566 118.47701702 84.57755101 120 86 C118 87 118 87 114.6484375 85.99609375 C113.22106243 85.48457246 111.79676808 84.96440525 110.375 84.4375 C109.61445313 84.16228516 108.85390625 83.88707031 108.0703125 83.60351562 C102.41154726 81.54706038 96.75781292 79.46464671 91.14784145 77.27810192 C87.82180252 75.99446038 84.53254377 74.83650197 81.08131409 73.93684387 C68.16074699 70.38162124 60.59060968 63.05839357 51.46484375 53.57421875 C49.96692536 52.05827608 48.46659886 50.54470951 46.96400452 49.03340149 C43.05433219 45.08775235 39.17925035 41.10979554 35.31048584 37.12408447 C31.34280098 33.05006129 27.34014019 29.01069164 23.34179688 24.96679688 C17.53516531 19.08112276 11.73740324 13.18699092 5.97241211 7.26049805 C5.36326965 6.63766937 4.7541272 6.0148407 4.12652588 5.37313843 C0 1.11645978 0 1.11645978 0 0 Z " fill="#F7740D" transform="translate(394,409)"/>
<path d="M0 0 C2.95582551 2.83102399 5.44249662 5.77341469 7.875 9.0625 C9.04675781 10.64224609 9.04675781 10.64224609 10.2421875 12.25390625 C11.16185166 13.50231451 12.08108766 14.75103824 13 16 C14.12756412 17.52997743 15.25517075 19.05992353 16.3828125 20.58984375 C18.20220524 23.05907272 20.02109066 25.52866885 21.83862305 27.99926758 C25.10094968 32.43209778 28.37757047 36.85260709 31.6875 41.25 C36.34540349 47.44033643 41.0077823 53.64094046 45.47314453 59.97241211 C46.99604848 62.07002379 46.99604848 62.07002379 48.94482422 64.07641602 C57.04892373 73.41655697 57.98318986 84.98941948 60 96.8125 C60.39461062 98.97637341 60.79172669 101.13979149 61.19140625 103.30273438 C64.25996784 120.21992808 64.25996784 120.21992808 64 126 C63.34 126 62.68 126 62 126 C60.625 124.12109375 60.625 124.12109375 59 121.4375 C56.15597709 116.84240514 53.25095441 112.30567752 50.25 107.8125 C49.83347168 107.18496826 49.41694336 106.55743652 48.98779297 105.91088867 C46.72954438 102.52436893 44.42702858 99.17881948 42.0546875 95.87109375 C36.74310756 88.42943136 32.72125313 81.79871844 30 73 C27.86721344 67.54257556 25.64365296 62.13755863 22.9375 56.9375 C20.93570026 53.0540085 19.51551965 49.0329658 18.0625 44.91796875 C16.22441844 39.87000211 14.09250909 34.9465123 12 30 C11.20779927 28.08355401 10.41613676 26.16688546 9.625 24.25 C8.1655913 20.73436372 6.67027167 17.23811468 5.12890625 13.7578125 C4.80776855 13.03174805 4.48663086 12.30568359 4.15576172 11.55761719 C3.518831 10.1218732 2.87861979 8.68757926 2.23486328 7.25488281 C0 2.21930525 0 2.21930525 0 0 Z " fill="#F4710B" transform="translate(476,364)"/>
<path d="M0 0 C4.08568304 -0.18158591 7.73578745 0.06991065 11.75 0.86328125 C16.39526699 1.73699434 21.04966602 2.46181317 25.73046875 3.11328125 C53.71920854 7.04512608 53.71920854 7.04512608 64.96679688 11.25830078 C68.47091847 12.53658145 72.02105297 13.67728783 75.56347656 14.84423828 C79.71454321 16.2129721 83.85735466 17.60602643 88 19 C88 19.66 88 20.32 88 21 C81.99021778 21.17490411 75.98196191 21.30093212 69.97021484 21.38452148 C67.93154042 21.41941597 65.89303708 21.46695095 63.85498047 21.52807617 C50.49974896 21.91817744 41.43581244 21.12807064 30 14 C28.2880299 13.25105951 26.56119152 12.53365882 24.8125 11.875 C20.35573905 10.16535728 16.0311078 8.2332412 11.6953125 6.23828125 C7.81340275 4.45485315 3.90729462 2.72692774 0 1 C0 0.67 0 0.34 0 0 Z " fill="#F26F0C" transform="translate(370,487)"/>
<path d="M0 0 C0.99 0 1.98 0 3 0 C3.06941478 9.74419823 3.12276776 19.48833795 3.15543652 29.23273277 C3.17111343 33.75713184 3.19238839 38.28136214 3.22631836 42.80566406 C3.25883996 47.16932465 3.27683774 51.53282261 3.28463173 55.896595 C3.29018824 57.56403795 3.30103834 59.23147169 3.31719017 60.89884567 C3.33886932 63.22882289 3.34197101 65.55812227 3.34057617 67.88818359 C3.351362 68.58229843 3.36214783 69.27641327 3.3732605 69.99156189 C3.36076355 71.91220093 3.36076355 71.91220093 3 75 C1.515 75.99 1.515 75.99 0 77 C0 51.59 0 26.18 0 0 Z " fill="#E5E7E9" transform="translate(1251,589)"/>
<path d="M0 0 C5.18453174 -0.23042363 9.84633726 0.43131045 14.93359375 1.421875 C20.26529484 2.42708744 25.63456943 3.19817095 31 4 C31 4.33 31 4.66 31 5 C30.21625 5.061875 29.4325 5.12375 28.625 5.1875 C27.75875 5.455625 26.8925 5.72375 26 6 C24.62533375 8.47636012 24.62533375 8.47636012 24 11 C19.50567509 9.57061226 15.20377571 7.86988152 10.875 6 C9.67617188 5.484375 8.47734375 4.96875 7.2421875 4.4375 C4.78830548 3.34951376 2.38279485 2.23288888 0 1 C0 0.67 0 0.34 0 0 Z " fill="#E7700B" transform="translate(370,487)"/>
<path d="M0 0 C-0.33 0.99 -0.66 1.98 -1 3 C-16.0687661 3.08186457 -31.12257695 2.82313734 -46.1875 2.5 C-48.50976189 2.45164321 -50.83202751 2.40346504 -53.15429688 2.35546875 C-58.76957575 2.23903213 -64.38480509 2.12041445 -70 2 C-70 1.67 -70 1.34 -70 1 C-62.44184982 0.85559856 -54.88365972 0.71343873 -47.32543945 0.57275391 C-44.76032584 0.52475366 -42.19522137 0.47626168 -39.63012695 0.42724609 C-12.28410838 -0.09464482 -12.28410838 -0.09464482 0 0 Z " fill="#B8BBBE" transform="translate(674,1251)"/>
<path d="M0 0 C4.08276326 0.40158327 8.05208447 0.84852464 12 2 C12 2.66 12 3.32 12 4 C-2.52 4 -17.04 4 -32 4 C-32 3.34 -32 2.68 -32 2 C-31.06615479 1.97494385 -30.13230957 1.9498877 -29.17016602 1.92407227 C-25.71674811 1.82913072 -22.2635104 1.72988742 -18.81030273 1.62768555 C-17.31360731 1.58428187 -15.81686061 1.54261087 -14.32006836 1.50268555 C-12.17285688 1.44511384 -10.02590479 1.38138284 -7.87890625 1.31640625 C-6.5854126 1.27974854 -5.29191895 1.24309082 -3.95922852 1.20532227 C-1.11444992 1.3332722 -1.11444992 1.3332722 0 0 Z " fill="#D36B0E" transform="translate(446,504)"/>
<path d="M0 0 C1.70881348 0.09849243 1.70881348 0.09849243 3.45214844 0.19897461 C17.71382967 0.98511864 31.97022492 1.30971496 46.25 1.5625 C48.56771367 1.6058354 50.88542207 1.64945359 53.203125 1.69335938 C58.802027 1.79882112 64.40098306 1.90083762 70 2 C70 2.33 70 2.66 70 3 C47.23 3 24.46 3 1 3 C0.67 2.01 0.34 1.02 0 0 Z " fill="#F8F8F9" transform="translate(584,1251)"/>
<path d="M0 0 C3.31938559 3.13666712 6.05462121 6.58007057 8.75 10.25 C9.36681641 11.08144531 9.36681641 11.08144531 9.99609375 11.9296875 C11.00035358 13.28427052 12.00059353 14.64183224 13 16 C12.01 16.33 11.02 16.66 10 17 C10 18.98 10 20.96 10 23 C5.91526009 16.87289013 0 7.47050246 0 0 Z " fill="#EB7410" transform="translate(476,364)"/>
<path d="M0 0 C6.6 0.33 13.2 0.66 20 1 C18 3 18 3 14.0859375 3.1953125 C12.51550649 3.18200376 10.94513779 3.15813602 9.375 3.125 C8.57320312 3.11597656 7.77140625 3.10695313 6.9453125 3.09765625 C4.96341477 3.07406223 2.98167019 3.03819065 1 3 C0.67 2.01 0.34 1.02 0 0 Z " fill="#EAEBED" transform="translate(584,1251)"/>
<path d="M0 0 C3.42946293 1.61674681 6.56263052 3.57597677 9.75 5.625 C11.22726562 6.57246094 11.22726562 6.57246094 12.734375 7.5390625 C13.48203125 8.02117187 14.2296875 8.50328125 15 9 C14.01 9.99 13.02 10.98 12 12 C7.47384007 8.32167983 3.60575001 4.58913637 0 0 Z " fill="#D46E14" transform="translate(394,409)"/>
<path d="M0 0 C0.99 0 1.98 0 3 0 C3.12152487 7.73708326 2.84800767 15.307359 2 23 C1.67 23 1.34 23 1 23 C0.67 15.41 0.34 7.82 0 0 Z " fill="#F0F1F2" transform="translate(1251,589)"/>
<path d="M0 0 C7.42857143 -0.28571429 7.42857143 -0.28571429 11 2 C4.6 6.06153846 4.6 6.06153846 1.5625 5.75 C1.046875 5.5025 0.53125 5.255 0 5 C0.66 4.01 1.32 3.02 2 2 C1.34 1.34 0.68 0.68 0 0 Z " fill="#F97D16" transform="translate(395,492)"/>
<path d="M0 0 C0.99 0.33 1.98 0.66 3 1 C1.42617053 2.65492374 -0.15942902 4.29866024 -1.75 5.9375 C-2.63171875 6.85402344 -3.5134375 7.77054688 -4.421875 8.71484375 C-6.80176695 10.82429343 -7.9099375 11.66067071 -11 12 C-10.29875 11.319375 -9.5975 10.63875 -8.875 9.9375 C-5.72065663 6.79219487 -2.86065696 3.4111614 0 0 Z " fill="#232F3D" transform="translate(982,614)"/>
<path d="M0 0 C4.00972202 3.67557852 6.45335415 7.18966896 9 12 C8.01 12 7.02 12 6 12 C2.64334391 8.63364259 0.43370845 4.7707929 0 0 Z " fill="#232D3A" transform="translate(244,557)"/>
<path d="M0 0 C2.015625 3.765625 2.015625 3.765625 1.875 5.875 C0.64374503 8.86519064 -1.14320832 11.36455374 -3 14 C-4 12 -4 12 -3.22265625 9.1796875 C-2.83980469 8.08914063 -2.45695312 6.99859375 -2.0625 5.875 C-1.68222656 4.77929688 -1.30195312 3.68359375 -0.91015625 2.5546875 C-0.60980469 1.71164062 -0.30945312 0.86859375 0 0 Z " fill="#D9DBDE" transform="translate(1219,821)"/>
<path d="M0 0 C0.66 0 1.32 0 2 0 C1.39665691 3.70503641 -0.22474237 5.85968148 -2.5625 8.75 C-3.52349609 9.94882812 -3.52349609 9.94882812 -4.50390625 11.171875 C-4.99761719 11.77515625 -5.49132812 12.3784375 -6 13 C-6.66 12.67 -7.32 12.34 -8 12 C-6.71656721 9.99426318 -5.4239631 7.99563881 -4.125 6 C-3.76019531 5.42765625 -3.39539063 4.8553125 -3.01953125 4.265625 C-2.06525233 2.80818084 -1.03722413 1.39962775 0 0 Z " fill="#ED720E" transform="translate(587,395)"/>
<path d="M0 0 C0.33 0.99 0.66 1.98 1 3 C-0.43359375 5.69921875 -0.43359375 5.69921875 -2.4375 8.6875 C-3.42556641 10.17830078 -3.42556641 10.17830078 -4.43359375 11.69921875 C-5.20896484 12.83810547 -5.20896484 12.83810547 -6 14 C-6.71484375 12.328125 -6.71484375 12.328125 -7 10 C-5.56640625 7.421875 -5.56640625 7.421875 -3.5625 4.75 C-2.90378906 3.85796875 -2.24507812 2.9659375 -1.56640625 2.046875 C-1.04949219 1.37140625 -0.53257812 0.6959375 0 0 Z " fill="#29292D" transform="translate(583,398)"/>
<path d="M0 0 C0.66 0.99 1.32 1.98 2 3 C-0.78750235 7.74907807 -1.6452373 8.85809492 -7 11 C-4.69 7.37 -2.38 3.74 0 0 Z " fill="#2B3643" transform="translate(120,263)"/>
<path d="M0 0 C0.66 0.33 1.32 0.66 2 1 C1.01 2.485 1.01 2.485 0 4 C2.97 4.495 2.97 4.495 6 5 C6.33 6.32 6.66 7.64 7 9 C4.03 8.01 1.06 7.02 -2 6 C-1.125 1.125 -1.125 1.125 0 0 Z " fill="#EA7711" transform="translate(396,493)"/>
<path d="M0 0 C4.2742558 1.5830577 6.26531794 4.50568404 9 8 C5.625 7.375 5.625 7.375 2 6 C0.5625 2.875 0.5625 2.875 0 0 Z " fill="#E06B0A" transform="translate(505,488)"/>
<path d="M0 0 C0.95465783 2.16967689 1.14401212 3.56328793 0.3984375 5.82421875 C-0.35870385 7.5684743 -1.17609198 9.28627131 -2 11 C-2.66 11 -3.32 11 -4 11 C-3.39301257 6.87248551 -1.96189209 3.6678852 0 0 Z " fill="#26313F" transform="translate(803,725)"/>
<path d="M0 0 C-1.41519715 2.0343459 -2.54982123 2.90410393 -4.98046875 3.421875 C-6.98176954 3.66273952 -8.9909944 3.83532741 -11 4 C-4.14893617 -1.38297872 -4.14893617 -1.38297872 0 0 Z " fill="#222E3C" transform="translate(859,689)"/>
<path d="M0 0 C0.99 0.33 1.98 0.66 3 1 C1.80100302 4.0831351 0.52299523 7.06279492 -1 10 C-1.66 10 -2.32 10 -3 10 C-2.01 6.7 -1.02 3.4 0 0 Z " fill="#303B47" transform="translate(999,581)"/>
<path d="M0 0 C0.33 0.66 0.66 1.32 1 2 C-0.98 2.66 -2.96 3.32 -5 4 C-5.66 2.68 -6.32 1.36 -7 0 C-4.30234372 -1.34882814 -2.84835666 -0.80338265 0 0 Z " fill="#EF7814" transform="translate(413,420)"/>
<path d="M0 0 C0.66 0.66 1.32 1.32 2 2 C-1.625 5 -1.625 5 -5 5 C-5.33 5.66 -5.66 6.32 -6 7 C-6.66 6.34 -7.32 5.68 -8 5 C-4.04 2.525 -4.04 2.525 0 0 Z " fill="#222E3B" transform="translate(284,103)"/>
<path d="M0 0 C-1 3 -1 3 -3.8125 4.75 C-7.13982105 6.05483179 -7.79584277 6.02866653 -11 5 C-9.54462432 4.16151196 -8.08559627 3.32936066 -6.625 2.5 C-5.81289063 2.0359375 -5.00078125 1.571875 -4.1640625 1.09375 C-2 0 -2 0 0 0 Z " fill="#2F3A47" transform="translate(342,69)"/>
<path d="M0 0 C0.33 0.99 0.66 1.98 1 3 C-2.0247093 7.70510336 -2.0247093 7.70510336 -5.14453125 8.6484375 C-5.75683594 8.76445312 -6.36914062 8.88046875 -7 9 C-6.02180976 7.68677212 -5.0424189 6.37443848 -4.0625 5.0625 C-3.51722656 4.33160156 -2.97195312 3.60070312 -2.41015625 2.84765625 C-1 1 -1 1 0 0 Z " fill="#2A3543" transform="translate(168,203)"/>
<path d="M0 0 C-1.54705733 3.09411467 -3.88071772 3.71558965 -7 5 C-9.19921875 4.58203125 -9.19921875 4.58203125 -11 4 C-9.73308493 3.32591692 -8.46129251 2.66099503 -7.1875 2 C-6.47980469 1.62875 -5.77210938 1.2575 -5.04296875 0.875 C-3 0 -3 0 0 0 Z " fill="#353F4D" transform="translate(380,51)"/>
<path d="M0 0 C0.66 0.99 1.32 1.98 2 3 C0.02 5.31 -1.96 7.62 -4 10 C-4.66 9.67 -5.32 9.34 -6 9 C-4.02 6.03 -2.04 3.06 0 0 Z " fill="#D9DADD" transform="translate(1138,981)"/>
<path d="M0 0 C0.66 0.33 1.32 0.66 2 1 C-0.64 2.98 -3.28 4.96 -6 7 C-6.66 6.67 -7.32 6.34 -8 6 C-3.375 1.125 -3.375 1.125 0 0 Z " fill="#D5650F" transform="translate(674,267)"/>
<path d="M0 0 C0.66 0.66 1.32 1.32 2 2 C-3.75 7 -3.75 7 -6 7 C-4.60667426 3.63279613 -3.0210714 2.0140476 0 0 Z " fill="#1D2A38" transform="translate(238,137)"/>
<path d="M0 0 C4.94117647 4.61176471 4.94117647 4.61176471 6 8 C5.0390625 10.125 5.0390625 10.125 4 12 C3.3291288 10.3767313 2.66342971 8.75132422 2 7.125 C1.62875 6.22007812 1.2575 5.31515625 0.875 4.3828125 C0 2 0 2 0 0 Z " fill="#D36E14" transform="translate(476,364)"/>
<path d="M0 0 C0.33 0.66 0.66 1.32 1 2 C-0.65 3.98 -2.3 5.96 -4 8 C-4.66 7.34 -5.32 6.68 -6 6 C-4.02 4.02 -2.04 2.04 0 0 Z " fill="#212E3C" transform="translate(566,935)"/>
<path d="M0 0 C6.625 -0.25 6.625 -0.25 10 2 C4.58461538 3.23076923 4.58461538 3.23076923 1.625 2.0625 C1.08875 1.711875 0.5525 1.36125 0 1 C0 0.67 0 0.34 0 0 Z " fill="#B15A13" transform="translate(370,487)"/>
<path d="M0 0 C0.33 0 0.66 0 1 0 C1.33 3.63 1.66 7.26 2 11 C1.34 11 0.68 11 0 11 C-1.35015859 6.94952424 -0.62084998 4.2079832 0 0 Z " fill="#B85C13" transform="translate(538,479)"/>
<path d="M0 0 C2.88437779 1.29299694 4.87219421 2.65941363 7 5 C4.03 4.505 4.03 4.505 1 4 C0.67 2.68 0.34 1.36 0 0 Z " fill="#E86C0A" transform="translate(936,486)"/>
<path d="M0 0 C1.9451 2.91765 2.45276317 4.62537285 3 8 C1.35 7.01 -0.3 6.02 -2 5 C-1.34 3.35 -0.68 1.7 0 0 Z " fill="#322824" transform="translate(748,335)"/>
<path d="M0 0 C0.66 1.32 1.32 2.64 2 4 C1.01 4.66 0.02 5.32 -1 6 C-1.66 5.67 -2.32 5.34 -3 5 C-1.125 1.125 -1.125 1.125 0 0 Z " fill="#EF7214" transform="translate(751,299)"/>
<path d="M0 0 C0.99 0.33 1.98 0.66 3 1 C0.03 3.475 0.03 3.475 -3 6 C-3.66 5.67 -4.32 5.34 -5 5 C-3.35 3.35 -1.7 1.7 0 0 Z " fill="#222D3B" transform="translate(174,197)"/>
</svg>
